<?xml version="1.0" encoding="UTF-8"?>
<svg xmlns="http://www.w3.org/2000/svg" xmlns:xlink="http://www.w3.org/1999/xlink" width="854" height="480" viewBox="0 0 854 480">
<defs>
<g>
<g id="glyph-0-0">
<path d="M 2.578125 -0.78125 C 2.503906 -0.5 2.378906 -0.285156 2.203125 -0.140625 C 2.023438 0.00390625 1.789062 0.078125 1.5 0.078125 C 1.125 0.078125 0.820312 -0.046875 0.59375 -0.296875 C 0.363281 -0.546875 0.25 -0.878906 0.25 -1.296875 C 0.25 -1.710938 0.363281 -2.046875 0.59375 -2.296875 C 0.820312 -2.546875 1.125 -2.671875 1.5 -2.671875 C 1.664062 -2.671875 1.828125 -2.648438 1.984375 -2.609375 C 2.148438 -2.566406 2.316406 -2.507812 2.484375 -2.4375 L 2.484375 -1.765625 L 2.21875 -1.765625 C 2.1875 -1.992188 2.113281 -2.160156 2 -2.265625 C 1.882812 -2.367188 1.722656 -2.421875 1.515625 -2.421875 C 1.265625 -2.421875 1.078125 -2.328125 0.953125 -2.140625 C 0.835938 -1.953125 0.78125 -1.671875 0.78125 -1.296875 C 0.78125 -0.921875 0.835938 -0.640625 0.953125 -0.453125 C 1.078125 -0.265625 1.265625 -0.171875 1.515625 -0.171875 C 1.703125 -0.171875 1.851562 -0.21875 1.96875 -0.3125 C 2.082031 -0.414062 2.160156 -0.570312 2.203125 -0.78125 Z "/>
</g>
<g id="glyph-0-1">
<path d="M 0.484375 -3.484375 C 0.671875 -3.554688 0.851562 -3.613281 1.03125 -3.65625 C 1.207031 -3.695312 1.375 -3.71875 1.53125 -3.71875 C 1.882812 -3.71875 2.160156 -3.640625 2.359375 -3.484375 C 2.554688 -3.328125 2.65625 -3.113281 2.65625 -2.84375 C 2.65625 -2.625 2.585938 -2.4375 2.453125 -2.28125 C 2.316406 -2.132812 2.117188 -2.035156 1.859375 -1.984375 C 2.160156 -1.941406 2.394531 -1.832031 2.5625 -1.65625 C 2.726562 -1.488281 2.8125 -1.265625 2.8125 -0.984375 C 2.8125 -0.640625 2.695312 -0.375 2.46875 -0.1875 C 2.238281 -0.0078125 1.910156 0.078125 1.484375 0.078125 C 1.285156 0.078125 1.097656 0.0546875 0.921875 0.015625 C 0.742188 -0.0234375 0.5625 -0.0859375 0.375 -0.171875 L 0.375 -0.890625 L 0.65625 -0.890625 C 0.664062 -0.648438 0.742188 -0.46875 0.890625 -0.34375 C 1.035156 -0.226562 1.234375 -0.171875 1.484375 -0.171875 C 1.734375 -0.171875 1.929688 -0.242188 2.078125 -0.390625 C 2.222656 -0.535156 2.296875 -0.734375 2.296875 -0.984375 C 2.296875 -1.265625 2.21875 -1.476562 2.0625 -1.625 C 1.914062 -1.769531 1.703125 -1.84375 1.421875 -1.84375 L 1.1875 -1.84375 L 1.1875 -2.09375 L 1.3125 -2.09375 C 1.59375 -2.09375 1.804688 -2.148438 1.953125 -2.265625 C 2.097656 -2.390625 2.171875 -2.570312 2.171875 -2.8125 C 2.171875 -3.019531 2.109375 -3.179688 1.984375 -3.296875 C 1.867188 -3.410156 1.703125 -3.46875 1.484375 -3.46875 C 1.265625 -3.46875 1.09375 -3.414062 0.96875 -3.3125 C 0.851562 -3.207031 0.785156 -3.050781 0.765625 -2.84375 L 0.484375 -2.84375 Z "/>
</g>
</g>
</defs>
<g fill="rgb(100%, 100%, 100%)" fill-opacity="1">
<use xlink:href="#glyph-0-0" x="30" y="24.641602"/>
<use xlink:href="#glyph-0-1" x="33" y="24.641602"/>
</g>
</svg>
